<svg width="28" height="28" viewBox="0 0 28 28" fill="none" xmlns="http://www.w3.org/2000/svg">
<path d="M22.5377 27.4562C19.6973 27.4562 17.3865 25.1454 17.3865 22.305C17.3865 21.6118 17.5251 20.9354 17.7987 20.2946C18.308 19.0787 19.301 18.0807 20.5219 17.5601C20.5379 17.5533 20.5545 17.5471 20.5712 17.5418C21.1903 17.2843 21.8515 17.1539 22.5377 17.1539C25.3781 17.1539 27.6892 19.4647 27.6892 22.305C27.6892 25.1454 25.3781 27.4562 22.5377 27.4562ZM20.9354 18.6384C20.0064 19.0466 19.252 19.812 18.8615 20.7439C18.648 21.2444 18.5404 21.7684 18.5404 22.305C18.5404 24.5091 20.3337 26.3024 22.5377 26.3024C24.742 26.3024 26.5353 24.5091 26.5353 22.305C26.5353 20.101 24.742 18.3077 22.5377 18.3077C21.9918 18.3077 21.4678 18.4134 20.9802 18.6215C20.9655 18.6277 20.9506 18.6334 20.9354 18.6384Z" fill="#0069B4"/>
<path d="M5.38555 10.3026C5.09456 10.3026 4.80131 10.2787 4.50834 10.2305C2.28572 9.86375 0.5434 8.03805 0.271559 5.79092C0.191556 5.13146 0.234938 4.47651 0.400296 3.84465C0.452411 3.64464 0.607909 3.48774 0.807353 3.43365C1.0068 3.37928 1.22033 3.43647 1.36625 3.58267L3.51591 5.73205H5.34245L6.13065 4.94385V3.1173L4.0841 1.07046C3.93367 0.920034 3.87817 0.698899 3.93987 0.49523C4.00156 0.291842 4.1703 0.138597 4.37876 0.096905C4.70018 0.0326772 5.03822 0 5.38386 0C8.22425 0 10.5353 2.31079 10.5353 5.15118C10.5353 5.83797 10.3993 6.51292 10.1305 7.15717C9.61219 8.38003 8.61722 9.37725 7.4 9.89614C7.38338 9.90319 7.36647 9.90938 7.34957 9.91502C6.73067 10.1722 6.06417 10.3026 5.38555 10.3026ZM7.17379 9.36542H7.17942H7.17379ZM1.38738 5.23541C1.39019 5.37372 1.40005 5.51288 1.41695 5.65232C1.62767 7.3938 2.97617 8.80822 4.69623 9.09189C5.47232 9.21978 6.24812 9.13133 6.94111 8.83498C6.95632 8.8285 6.97181 8.82258 6.9873 8.81751C7.91438 8.40989 8.67103 7.64395 9.0671 6.70983C9.27528 6.21037 9.38148 5.68472 9.38148 5.15118C9.38148 3.09533 7.82142 1.39724 5.82303 1.17779L7.11548 2.47052C7.22365 2.57869 7.2845 2.72545 7.2845 2.87842V5.18273C7.2845 5.33569 7.22365 5.48246 7.11548 5.59063L5.98924 6.71687C5.88107 6.82504 5.7343 6.88589 5.58134 6.88589H3.27702C3.12406 6.88589 2.97729 6.82504 2.86912 6.71687L1.38738 5.23541Z" fill="#0069B4"/>
<path d="M20.7464 18.6654C20.5985 18.6654 20.4509 18.6091 20.3382 18.4961L16.9288 15.0808C16.7037 14.8552 16.704 14.4901 16.9294 14.265C17.155 14.0402 17.5201 14.0396 17.7452 14.2656L21.1546 17.6809C21.38 17.9065 21.3794 18.2716 21.1541 18.4967C21.0414 18.6091 20.894 18.6654 20.7464 18.6654Z" fill="#0069B4"/>
<path d="M13.0156 10.9348C12.8677 10.9348 12.7201 10.8785 12.6075 10.7655L9.19212 7.34429C8.96675 7.11864 8.96732 6.75356 9.19268 6.52848C9.41832 6.3034 9.78341 6.3034 10.0085 6.52904L13.4238 9.9503C13.6492 10.1759 13.6486 10.541 13.4233 10.7661C13.3106 10.8785 13.163 10.9348 13.0156 10.9348Z" fill="#0069B4"/>
<path d="M10.593 13.3636C10.4454 13.3636 10.2977 13.3073 10.1851 13.1946L6.76381 9.77364C6.53845 9.54828 6.53845 9.1832 6.76381 8.95784C6.98917 8.73248 7.35425 8.73248 7.57961 8.95784L11.0009 12.3788C11.2262 12.6042 11.2262 12.9693 11.0009 13.1946C10.8882 13.3073 10.7406 13.3636 10.593 13.3636Z" fill="#0069B4"/>
<path d="M18.3292 21.1002C18.1816 21.1002 18.034 21.0439 17.9213 20.9312L14.5003 17.5099C14.275 17.2846 14.275 16.9195 14.5003 16.6941C14.7257 16.4687 15.0908 16.4687 15.3161 16.6941L18.7371 20.1154C18.9625 20.3407 18.9625 20.7058 18.7371 20.9312C18.6244 21.0439 18.4768 21.1002 18.3292 21.1002Z" fill="#0069B4"/>
<path d="M23.6983 24.8916H21.3771C21.1709 24.8916 20.9805 24.7817 20.8774 24.6031L19.7168 22.5929C19.6139 22.4143 19.6139 22.1946 19.7168 22.016L20.8774 20.0055C20.9805 19.8269 21.1709 19.717 21.3771 19.717H23.6983C23.9045 19.717 24.095 19.8269 24.1981 20.0055L25.3587 22.016C25.4615 22.1946 25.4615 22.4143 25.3587 22.5929L24.1981 24.6031C24.095 24.7817 23.9045 24.8916 23.6983 24.8916ZM21.7101 23.7378H23.3654L24.1927 22.3045L23.3651 20.8709H21.7104L20.8827 22.3045L21.7101 23.7378Z" fill="#0069B4"/>
<path d="M13.206 19.0695C12.866 19.0695 12.5263 18.9402 12.2674 18.6813L9.00982 15.4297C8.49853 14.9077 8.49853 14.0693 9.0039 13.5541L21.4751 1.08263C22.8678 -0.303622 25.1279 -0.303059 26.5139 1.08263L26.5998 1.16319C28.0012 2.56409 28.0012 4.82474 26.6119 6.21381L14.1447 18.6813C13.8858 18.9402 13.546 19.0695 13.206 19.0695ZM23.9924 1.19756C23.3751 1.19756 22.7596 1.43194 22.29 1.89956L9.82281 14.3671C9.75914 14.4319 9.75914 14.5457 9.82788 14.6158L13.0832 17.8655C13.1519 17.9343 13.2601 17.9343 13.3289 17.8655L25.7961 5.398C26.2507 4.94334 26.5012 4.33824 26.5012 3.69456C26.5012 3.05059 26.2507 2.4455 25.7961 1.99083L25.7102 1.91027C25.2344 1.43447 24.6127 1.19756 23.9924 1.19756Z" fill="#0069B4"/>
<path d="M2.0894 27.6923C1.9401 27.6923 1.79249 27.6346 1.68121 27.5233L0.169045 26.0109C-0.0196948 25.8221 -0.054344 25.5289 0.0850979 25.3015L2.02996 22.129C2.23025 21.8022 2.56153 21.5752 2.93845 21.5059C3.31423 21.4355 3.70467 21.531 4.00834 21.7653C4.08581 21.8253 4.12694 21.8614 4.16525 21.9L5.61911 23.3539C5.64953 23.3843 5.67855 23.4164 5.70616 23.4499L5.88391 23.668C6.1304 23.9699 6.23434 24.364 6.16927 24.7483C6.10392 25.1331 5.87602 25.4706 5.54333 25.6745L2.39054 27.6073C2.29729 27.6644 2.19306 27.6923 2.0894 27.6923ZM1.30655 25.5168L2.17532 26.3858L4.94021 24.6911C5.00669 24.6502 5.02585 24.5886 5.03148 24.5553C5.03712 24.5224 5.03937 24.4578 4.98979 24.397L4.8033 24.1697L3.34945 22.7158C3.34888 22.7155 3.30353 22.6789 3.30297 22.6786C3.24268 22.6319 3.18014 22.6361 3.14662 22.6409C3.11423 22.6468 3.05366 22.6665 3.01366 22.7321L1.30655 25.5168Z" fill="#0069B4"/>
<path d="M3.49105 22.6186C3.34344 22.6186 3.19582 22.5622 3.08314 22.4496C2.85778 22.2242 2.85778 21.8588 3.08314 21.6338L9.55944 15.1586C9.78481 14.9332 10.1499 14.9332 10.3753 15.1586C10.6006 15.3839 10.6006 15.7493 10.3753 15.9744L3.89895 22.4496C3.78627 22.5622 3.63866 22.6186 3.49105 22.6186Z" fill="#0069B4"/>
<path d="M5.64955 24.7771C5.50194 24.7771 5.35433 24.7208 5.24165 24.6081C5.01629 24.3827 5.01629 24.0174 5.24165 23.7923L11.7179 17.3174C11.9433 17.092 12.3084 17.092 12.5338 17.3174C12.7591 17.5428 12.7591 17.9081 12.5338 18.1332L6.05746 24.6081C5.94478 24.7208 5.79717 24.7771 5.64955 24.7771Z" fill="#0069B4"/>
<path d="M13.2045 15.0639C13.0569 15.0639 12.9093 15.0076 12.7966 14.8949C12.5713 14.6695 12.5713 14.3044 12.7966 14.0791L23.5894 3.28627C23.8148 3.06091 24.1799 3.06091 24.4053 3.28627C24.6306 3.51163 24.6306 3.87671 24.4053 4.10207L13.6125 14.8949C13.4998 15.0076 13.3522 15.0639 13.2045 15.0639Z" fill="#0069B4"/>
</svg>
